<svg xmlns="http://www.w3.org/2000/svg" viewBox="0 0 24 24" role="img" aria-hidden="true"><defs><linearGradient id="ig" x1="0%" y1="100%" x2="100%" y2="0%"><stop offset="0%" stop-color="#FD5949"/><stop offset="50%" stop-color="#D6249F"/><stop offset="100%" stop-color="#285AEB"/></linearGradient></defs><path fill="url(#ig)" d="M12 2.163c3.204 0 3.584.012 4.85.07 1.366.062 2.633.35 3.608 1.325.975.975 1.263 2.242 1.325 3.608.058 1.266.07 1.646.07 4.85s-.012 3.584-.07 4.85c-.062 1.366-.35 2.633-1.325 3.608-.975.975-2.242 1.263-3.608 1.325-1.266.058-1.646.07-4.85.07s-3.584-.012-4.85-.07c-1.366-.062-2.633-.35-3.608-1.325-.975-.975-1.263-2.242-1.325-3.608-.058-1.266-.07-1.646-.07-4.85s.012-3.584.07-4.85c.062-1.366.35-2.633 1.325-3.608.975-.975 2.242-1.263 3.608-1.325 1.266-.058 1.646-.07 4.85-.07zM12 0C8.741 0 8.333.014 7.053.072 5.775.132 4.602.333 3.582.99c-1.02.657-1.82 1.457-2.477 2.477C.448 4.487.247 5.66.187 7.938.014 8.333 0 8.741 0 12c0 3.259.014 3.668.072 4.948.06 1.277.261 2.45.918 3.47.657 1.02 1.457 1.82 2.477 2.477 1.02.657 2.193.858 3.47.918 1.28.058 1.689.072 4.948.072s3.668-.014 4.948-.072c1.277-.06 2.45-.261 3.47-.918 1.02-.657 1.82-1.457 2.477-2.477.657-1.02.858-2.193.918-3.47.058-1.28.072-1.689.072-4.948s-.014-3.668-.072-4.948c-.06-1.277-.261-2.45-.918-3.47-.657-1.02-1.457-1.82-2.477-2.477-1.02-.657-2.193-.858-3.47-.918C15.668.014 15.259 0 12 0zm0 5.838a6.162 6.162 0 100 12.324 6.162 6.162 0 000-12.324zM12 16a4 4 0 110-8 4 4 0 010 8zm6.406-11.845a1.44 1.44 0 100 2.881 1.44 1.44 0 000-2.881z"/></svg>
